<?xml version="1.0" encoding="iso-8859-1"?>
<!-- Uploaded to: SVG Repo, www.svgrepo.com, Generator: SVG Repo Mixer Tools -->
<svg fill="#000000" height="800px" width="800px" version="1.1" id="Layer_1" xmlns="http://www.w3.org/2000/svg" xmlns:xlink="http://www.w3.org/1999/xlink" 
	 viewBox="0 0 512 512" xml:space="preserve">
<g>
	<g>
		<path d="M197.251,273.042c-0.122-0.634-0.293-1.245-0.537-1.832c-0.246-0.587-0.563-1.173-0.904-1.686
			c-0.367-0.537-0.759-1.049-1.221-1.488c-2.273-2.273-5.643-3.322-8.817-2.662c-0.634,0.122-1.245,0.291-1.832,0.537
			c-0.587,0.243-1.147,0.56-1.684,0.904c-0.539,0.365-1.026,0.756-1.491,1.221c-1.808,1.805-2.857,4.321-2.857,6.911
			c0,2.564,1.049,5.079,2.857,6.885c1.832,1.832,4.348,2.883,6.911,2.883c0.634,0,1.269-0.074,1.906-0.196
			c0.634-0.124,1.245-0.317,1.832-0.563c0.584-0.243,1.171-0.537,1.684-0.904c0.536-0.341,1.049-0.756,1.491-1.221
			c1.808-1.805,2.857-4.321,2.857-6.885C197.447,274.311,197.397,273.653,197.251,273.042z"/>
	</g>
</g>
<g>
	<g>
		<path d="M265.629,185.104c-0.122-0.61-0.317-1.221-0.563-1.808c-0.243-0.611-0.536-1.173-0.877-1.686
			c-0.367-0.537-0.782-1.049-1.221-1.488c-0.441-0.465-0.954-0.856-1.491-1.221c-0.513-0.343-1.099-0.661-1.684-0.904
			c-0.587-0.246-1.197-0.415-1.832-0.563c-1.247-0.243-2.54-0.243-3.811,0c-0.61,0.148-1.245,0.317-1.832,0.563
			c-0.587,0.243-1.147,0.56-1.684,0.904c-0.539,0.365-1.026,0.756-1.491,1.221c-0.439,0.439-0.854,0.951-1.197,1.488
			c-0.365,0.513-0.658,1.076-0.904,1.686c-0.243,0.587-0.439,1.197-0.56,1.808c-0.122,0.634-0.196,1.293-0.196,1.929
			c0,0.634,0.074,1.269,0.196,1.903c0.122,0.61,0.317,1.247,0.56,1.831c0.245,0.587,0.539,1.149,0.904,1.686
			c0.343,0.536,0.758,1.025,1.221,1.49c1.808,1.805,4.324,2.857,6.887,2.857c0.634,0,1.295-0.074,1.906-0.196
			c0.634-0.122,1.245-0.317,1.832-0.563c0.584-0.243,1.171-0.537,1.684-0.904c0.536-0.341,1.049-0.756,1.491-1.195
			c0.439-0.465,0.854-0.954,1.221-1.49c0.341-0.536,0.634-1.099,0.877-1.686c0.246-0.584,0.441-1.221,0.563-1.832
			c0.122-0.634,0.196-1.269,0.196-1.903C265.824,186.397,265.75,185.739,265.629,185.104z"/>
	</g>
</g>
<g>
	<g>
		<path d="M302.04,150.818c-2.273-2.273-5.643-3.322-8.817-2.688c-0.634,0.148-1.245,0.317-1.832,0.563
			c-0.587,0.243-1.147,0.56-1.684,0.904c-0.539,0.365-1.026,0.756-1.491,1.221c-1.808,1.805-2.857,4.321-2.857,6.911
			c0,2.564,1.049,5.079,2.857,6.885c0.465,0.465,0.952,0.88,1.491,1.221c0.536,0.367,1.097,0.661,1.684,0.904
			c0.587,0.246,1.197,0.441,1.832,0.563c0.634,0.122,1.271,0.196,1.906,0.196c2.588,0,5.103-1.052,6.911-2.883
			c1.832-1.805,2.857-4.321,2.857-6.885C304.897,155.139,303.871,152.623,302.04,150.818z"/>
	</g>
</g>
<g>
	<g>
		<path d="M302.04,111.745c-2.273-2.273-5.643-3.322-8.817-2.662c-0.634,0.122-1.245,0.291-1.832,0.537
			c-0.587,0.243-1.147,0.56-1.684,0.904c-0.539,0.365-1.026,0.78-1.491,1.221c-1.808,1.805-2.857,4.321-2.857,6.911
			c0,0.634,0.074,1.269,0.196,1.903c0.122,0.611,0.317,1.247,0.56,1.832c0.245,0.587,0.539,1.149,0.904,1.686
			c0.343,0.536,0.758,1.025,1.197,1.464c0.465,0.465,0.952,0.88,1.491,1.221c0.536,0.367,1.097,0.661,1.684,0.904
			c0.587,0.246,1.197,0.441,1.832,0.563c0.634,0.122,1.271,0.196,1.906,0.196c0.634,0,1.295-0.074,1.906-0.196
			c0.634-0.122,1.245-0.317,1.832-0.563c0.584-0.243,1.171-0.537,1.684-0.904c0.536-0.341,1.049-0.756,1.491-1.221
			c0.463-0.439,0.854-0.928,1.221-1.464c0.341-0.536,0.658-1.099,0.904-1.686c0.243-0.584,0.415-1.221,0.536-1.832
			c0.146-0.634,0.196-1.269,0.196-1.903C304.897,116.067,303.871,113.55,302.04,111.745z"/>
	</g>
</g>
<g>
	<g>
		<path d="M265.629,146.056c-0.122-0.634-0.317-1.245-0.563-1.832c-0.243-0.587-0.536-1.173-0.877-1.686
			c-0.367-0.537-0.782-1.049-1.221-1.488c-0.441-0.441-0.954-0.856-1.491-1.221c-0.513-0.343-1.099-0.661-1.684-0.904
			c-0.587-0.246-1.197-0.415-1.832-0.537c-1.247-0.269-2.54-0.269-3.811,0c-0.61,0.122-1.245,0.291-1.832,0.537
			c-0.587,0.243-1.147,0.56-1.684,0.904c-0.539,0.365-1.026,0.78-1.491,1.221c-0.439,0.439-0.854,0.951-1.197,1.488
			c-0.365,0.513-0.658,1.099-0.904,1.686c-0.243,0.587-0.439,1.197-0.56,1.832c-0.122,0.61-0.196,1.269-0.196,1.906
			c0,2.564,1.049,5.079,2.881,6.885c1.808,1.832,4.324,2.883,6.887,2.883c0.634,0,1.295-0.074,1.906-0.196
			c0.634-0.122,1.245-0.317,1.832-0.563c0.584-0.243,1.171-0.537,1.684-0.904c0.536-0.341,1.049-0.756,1.491-1.221
			c0.439-0.439,0.854-0.928,1.221-1.464c0.341-0.536,0.634-1.099,0.877-1.686c0.246-0.611,0.441-1.221,0.563-1.832
			c0.122-0.634,0.196-1.269,0.196-1.903C265.824,147.324,265.75,146.666,265.629,146.056z"/>
	</g>
</g>
<g>
	<g>
		<path d="M341.113,131.282c-0.441-0.441-0.954-0.856-1.491-1.221c-0.513-0.343-1.099-0.661-1.684-0.904
			c-0.587-0.246-1.197-0.415-1.832-0.563c-1.247-0.243-2.54-0.243-3.811,0c-0.611,0.148-1.245,0.317-1.832,0.563
			c-0.587,0.243-1.147,0.56-1.684,0.904c-0.539,0.365-1.026,0.78-1.491,1.221c-1.808,1.805-2.857,4.321-2.857,6.911
			c0,0.634,0.074,1.269,0.196,1.903c0.122,0.611,0.317,1.221,0.56,1.832c0.245,0.587,0.539,1.149,0.904,1.686
			c0.343,0.536,0.758,1.025,1.197,1.49c1.831,1.805,4.348,2.831,6.911,2.831c2.588,0,5.103-1.025,6.911-2.831
			c0.439-0.465,0.854-0.954,1.221-1.49c0.341-0.536,0.658-1.099,0.904-1.686c0.243-0.611,0.415-1.221,0.537-1.832
			c0.146-0.634,0.196-1.269,0.196-1.903C343.97,135.603,342.944,133.087,341.113,131.282z"/>
	</g>
</g>
<g>
	<g>
		<path d="M360.649,180.123c-0.441-0.465-0.954-0.856-1.491-1.221c-0.513-0.343-1.099-0.661-1.684-0.904
			c-0.587-0.246-1.197-0.415-1.832-0.563c-1.247-0.243-2.566-0.243-3.811,0c-0.634,0.148-1.245,0.317-1.832,0.563
			c-0.587,0.243-1.147,0.56-1.684,0.904c-0.539,0.365-1.026,0.756-1.491,1.221c-1.808,1.805-2.857,4.321-2.857,6.911
			c0,0.634,0.074,1.269,0.196,1.903c0.122,0.61,0.317,1.247,0.56,1.832c0.245,0.587,0.539,1.149,0.904,1.686
			c0.343,0.536,0.758,1.025,1.197,1.464c0.465,0.465,0.952,0.88,1.491,1.221c0.536,0.367,1.097,0.661,1.684,0.904
			c0.587,0.246,1.197,0.441,1.832,0.563c0.634,0.122,1.271,0.196,1.906,0.196c0.634,0,1.295-0.074,1.906-0.196
			c0.634-0.122,1.245-0.317,1.832-0.563c0.584-0.243,1.171-0.536,1.684-0.904c0.537-0.341,1.049-0.756,1.491-1.221
			c0.439-0.439,0.854-0.928,1.221-1.464c0.341-0.537,0.658-1.099,0.904-1.686c0.243-0.584,0.415-1.221,0.536-1.832
			c0.146-0.634,0.196-1.269,0.196-1.903C363.506,184.468,362.481,181.928,360.649,180.123z"/>
	</g>
</g>
<g>
	<g>
		<path d="M314.469,204.665c-0.122-0.634-0.293-1.245-0.536-1.832c-0.246-0.587-0.563-1.173-0.904-1.686
			c-0.367-0.537-0.782-1.049-1.221-1.488c-0.441-0.441-0.954-0.856-1.491-1.221c-0.513-0.343-1.099-0.661-1.684-0.904
			c-0.587-0.246-1.197-0.415-1.832-0.537c-1.247-0.269-2.54-0.269-3.811,0c-0.634,0.122-1.245,0.291-1.832,0.537
			c-0.587,0.243-1.147,0.56-1.684,0.904c-0.539,0.365-1.026,0.78-1.491,1.221c-0.439,0.439-0.854,0.951-1.197,1.488
			c-0.365,0.513-0.658,1.099-0.904,1.686c-0.243,0.587-0.439,1.197-0.56,1.832c-0.122,0.611-0.196,1.269-0.196,1.906
			c0,0.634,0.074,1.269,0.196,1.903c0.122,0.611,0.317,1.221,0.56,1.832c0.245,0.587,0.539,1.149,0.904,1.686
			c0.343,0.536,0.758,1.025,1.197,1.464c0.465,0.465,0.952,0.88,1.491,1.221c0.536,0.367,1.097,0.661,1.684,0.904
			c0.587,0.246,1.197,0.441,1.832,0.563c0.634,0.122,1.271,0.196,1.906,0.196c0.634,0,1.269-0.074,1.906-0.196
			c0.634-0.122,1.245-0.317,1.832-0.563c0.584-0.243,1.171-0.536,1.684-0.904c0.537-0.341,1.049-0.756,1.491-1.221
			c0.439-0.439,0.854-0.928,1.221-1.464c0.341-0.537,0.658-1.099,0.904-1.686c0.243-0.61,0.415-1.221,0.536-1.832
			c0.146-0.634,0.196-1.269,0.196-1.903C314.665,205.933,314.615,205.275,314.469,204.665z"/>
	</g>
</g>
<g>
	<g>
		<path d="M255.86,273.018c-0.122-0.611-0.293-1.221-0.536-1.808c-0.246-0.587-0.563-1.173-0.904-1.686
			c-0.367-0.537-0.758-1.049-1.221-1.488c-0.441-0.465-0.954-0.856-1.491-1.221c-0.513-0.343-1.099-0.661-1.684-0.904
			c-0.587-0.246-1.197-0.415-1.832-0.563c-1.247-0.243-2.54-0.243-3.811,0c-0.634,0.148-1.245,0.317-1.832,0.563
			c-0.587,0.243-1.147,0.56-1.684,0.904c-0.539,0.365-1.026,0.756-1.491,1.221c-0.439,0.439-0.854,0.951-1.197,1.488
			c-0.365,0.513-0.658,1.099-0.904,1.686c-0.243,0.587-0.439,1.197-0.56,1.808c-0.122,0.634-0.196,1.293-0.196,1.929
			c0,0.634,0.074,1.269,0.196,1.903c0.122,0.611,0.317,1.221,0.56,1.832c0.245,0.587,0.539,1.149,0.904,1.686
			c0.343,0.537,0.758,1.025,1.197,1.49c0.465,0.439,0.952,0.854,1.491,1.195c0.536,0.367,1.097,0.661,1.684,0.904
			c0.587,0.246,1.197,0.439,1.832,0.563c0.634,0.122,1.271,0.196,1.906,0.196c0.634,0,1.269-0.074,1.906-0.196
			c0.634-0.124,1.245-0.317,1.832-0.563c0.584-0.243,1.171-0.537,1.684-0.904c0.537-0.341,1.049-0.756,1.491-1.195
			c0.463-0.465,0.854-0.954,1.221-1.49c0.341-0.536,0.658-1.099,0.904-1.686c0.243-0.611,0.415-1.221,0.536-1.832
			c0.146-0.634,0.196-1.269,0.196-1.903C256.056,274.311,256.006,273.653,255.86,273.018z"/>
	</g>
</g>
<g>
	<g>
		<path d="M275.397,341.419c-0.122-0.634-0.317-1.245-0.563-1.832c-0.243-0.587-0.536-1.173-0.877-1.686
			c-0.367-0.537-0.782-1.049-1.221-1.488c-0.465-0.441-0.954-0.856-1.491-1.221c-0.513-0.343-1.099-0.661-1.684-0.904
			c-0.587-0.246-1.197-0.415-1.831-0.563c-1.247-0.243-2.54-0.243-3.811,0c-0.61,0.148-1.245,0.317-1.832,0.563
			c-0.587,0.243-1.147,0.56-1.684,0.904c-0.539,0.365-1.026,0.78-1.491,1.221c-0.439,0.439-0.854,0.951-1.221,1.488
			c-0.341,0.513-0.634,1.099-0.88,1.686c-0.243,0.587-0.439,1.197-0.56,1.832c-0.122,0.611-0.196,1.269-0.196,1.906
			c0,0.634,0.074,1.269,0.196,1.903c0.122,0.611,0.317,1.247,0.56,1.832c0.245,0.587,0.539,1.149,0.904,1.686
			c0.343,0.537,0.758,1.025,1.197,1.49c0.465,0.439,0.952,0.854,1.491,1.195c0.537,0.367,1.097,0.661,1.684,0.904
			c0.587,0.246,1.221,0.439,1.832,0.563c0.634,0.122,1.271,0.196,1.906,0.196c2.588,0,5.103-1.052,6.911-2.857
			c1.808-1.832,2.857-4.347,2.857-6.911C275.592,342.688,275.542,342.03,275.397,341.419z"/>
	</g>
</g>
<g>
	<g>
		<path d="M275.397,400.028c-0.122-0.634-0.317-1.245-0.563-1.832c-0.243-0.587-0.536-1.173-0.877-1.686
			c-0.367-0.537-0.782-1.049-1.221-1.488c-2.273-2.273-5.643-3.322-8.817-2.662c-0.61,0.122-1.245,0.291-1.832,0.537
			c-0.587,0.243-1.147,0.56-1.684,0.904c-0.539,0.365-1.026,0.756-1.491,1.221c-0.439,0.439-0.854,0.951-1.221,1.488
			c-0.341,0.513-0.634,1.099-0.88,1.686c-0.243,0.587-0.439,1.197-0.56,1.832c-0.122,0.61-0.196,1.269-0.196,1.906
			c0,0.634,0.074,1.269,0.196,1.903c0.122,0.611,0.317,1.247,0.56,1.832c0.245,0.587,0.539,1.149,0.904,1.686
			c0.343,0.536,0.758,1.025,1.197,1.49c0.465,0.439,0.952,0.854,1.491,1.195c0.537,0.367,1.097,0.661,1.684,0.904
			c0.587,0.246,1.221,0.439,1.832,0.563c0.634,0.122,1.271,0.196,1.906,0.196c2.588,0,5.103-1.052,6.911-2.857
			c0.439-0.465,0.854-0.954,1.221-1.49c0.341-0.536,0.634-1.099,0.877-1.686c0.246-0.611,0.441-1.221,0.563-1.832
			c0.146-0.634,0.196-1.269,0.196-1.903C275.592,401.297,275.542,400.639,275.397,400.028z"/>
	</g>
</g>
<g>
	<g>
		<path d="M341.113,307.109c-0.441-0.441-0.954-0.856-1.491-1.221c-0.513-0.343-1.099-0.661-1.684-0.904
			c-0.587-0.246-1.197-0.415-1.832-0.563c-1.247-0.243-2.54-0.243-3.811,0c-0.611,0.148-1.245,0.317-1.832,0.563
			c-0.587,0.243-1.147,0.56-1.684,0.904c-0.539,0.365-1.026,0.78-1.491,1.221c-1.808,1.805-2.857,4.321-2.857,6.911
			c0,0.634,0.074,1.269,0.196,1.903c0.122,0.611,0.317,1.221,0.56,1.832c0.245,0.587,0.539,1.149,0.904,1.686
			c0.343,0.537,0.758,1.025,1.197,1.49c1.832,1.805,4.348,2.857,6.911,2.857s5.08-1.052,6.911-2.857
			c0.439-0.465,0.854-0.954,1.221-1.49c0.341-0.536,0.658-1.099,0.904-1.686c0.243-0.61,0.415-1.221,0.536-1.832
			c0.146-0.634,0.196-1.269,0.196-1.903C343.97,311.454,342.944,308.914,341.113,307.109z"/>
	</g>
</g>
<g>
	<g>
		<path d="M399.722,258.268c-0.441-0.441-0.954-0.856-1.491-1.221c-0.513-0.343-1.099-0.661-1.684-0.904
			c-0.587-0.246-1.197-0.415-1.832-0.537c-3.177-0.661-6.546,0.389-8.817,2.662c-1.808,1.805-2.857,4.321-2.857,6.911
			c0,2.564,1.049,5.079,2.857,6.885c1.832,1.832,4.348,2.883,6.911,2.883c2.588,0,5.103-1.052,6.911-2.883
			c1.808-1.805,2.857-4.321,2.857-6.885C402.579,262.589,401.553,260.073,399.722,258.268z"/>
	</g>
</g>
<g>
	<g>
		<path d="M461.002,136.27c-4.371-21.861-13.701-53.804-33.32-81.832c-21.237-30.337-48.936-48.14-82.326-52.909
			c-45.224-6.46-117.104,7.331-161.221,45.619c-23.259,20.187-35.543,44.916-35.524,71.509
			c0.074,105.192,0.074,105.192-20.431,128.315c-10.002,11.278-25.117,28.322-46.42,61.798
			c-63.154,99.241-32.39,154.252-8.433,178.21C82.003,495.655,98.339,512,149.352,512c11.359,0,24.447-0.811,39.543-2.699
			c0.363-0.045,0.725-0.11,1.08-0.196c125.837-30.375,210.331-90.764,251.137-179.486
			C476.623,252.413,468.817,175.341,461.002,136.27z M185.926,489.983c-72.942,9.012-90.391-8.423-98.786-16.818
			c-34.222-34.222-30.278-88.882,11.103-153.909c20.467-32.164,34.389-47.863,44.553-59.325
			c25.429-28.675,25.427-30.785,25.35-141.29c-0.014-21.053,9.673-40.144,28.794-56.74c32.517-28.222,84.882-42.376,125.365-42.376
			c7.197,0,14.02,0.446,20.288,1.343c23.338,3.334,79.731,21.626,99.254,119.231C492.724,394.5,259.588,472.1,185.926,489.983z"/>
	</g>
</g>
<g>
	<g>
		<path d="M304.902,60.04c-53.861,0-97.682,43.821-97.682,97.682c0,53.861,43.821,97.682,97.682,97.682
			c53.861,0,97.682-43.821,97.682-97.682C402.583,103.861,358.763,60.04,304.902,60.04z M304.902,235.867
			c-43.089,0-78.146-35.057-78.146-78.145c0-43.089,35.057-78.146,78.146-78.146c43.089,0,78.146,35.057,78.146,78.146
			C383.047,200.811,347.99,235.867,304.902,235.867z"/>
	</g>
</g>
<g>
	<g>
		<path d="M177.915,323.781c-32.317,0-58.609,26.293-58.609,58.609s26.293,58.609,58.609,58.609
			c32.317,0,58.609-26.293,58.609-58.609S210.232,323.781,177.915,323.781z M177.915,421.463c-21.544,0-39.073-17.528-39.073-39.073
			c0-21.544,17.529-39.073,39.073-39.073c21.544,0,39.073,17.529,39.073,39.073C216.988,403.935,199.46,421.463,177.915,421.463z"/>
	</g>
</g>
</svg>